<?xml version="1.0" encoding="UTF-8" standalone="no"?>
<!-- Created with Inkscape (http://www.inkscape.org/) -->

<svg
   width="180"
   height="180"
   viewBox="0 0 180 180"
   version="1.1"
   id="svg1"
   xml:space="preserve"
   inkscape:version="1.3.2 (091e20e, 2023-11-25, custom)"
   sodipodi:docname="cherry.svg"
   xmlns:inkscape="http://www.inkscape.org/namespaces/inkscape"
   xmlns:sodipodi="http://sodipodi.sourceforge.net/DTD/sodipodi-0.dtd"
   xmlns:xlink="http://www.w3.org/1999/xlink"
   xmlns="http://www.w3.org/2000/svg"
   xmlns:svg="http://www.w3.org/2000/svg"><sodipodi:namedview
     id="namedview1"
     pagecolor="#ffffff"
     bordercolor="#000000"
     borderopacity="0.25"
     inkscape:showpageshadow="2"
     inkscape:pageopacity="0.0"
     inkscape:pagecheckerboard="0"
     inkscape:deskcolor="#d1d1d1"
     inkscape:document-units="px"
     inkscape:zoom="3.0523443"
     inkscape:cx="43.245449"
     inkscape:cy="95.500368"
     inkscape:window-width="1920"
     inkscape:window-height="991"
     inkscape:window-x="-9"
     inkscape:window-y="-9"
     inkscape:window-maximized="1"
     inkscape:current-layer="layer1" /><defs
     id="defs1"><color-profile
       name="sRGB-IEC61966-2.1"
       xlink:href="../../../../../../../../Windows/system32/spool/drivers/color/sRGB%20Color%20Space%20Profile.icm"
       id="color-profile2" /><style
       id="style1">.c{fill:none;stroke:#000000;stroke-linecap:round;stroke-linejoin:round;}</style></defs><g
     inkscape:label="Layer 1"
     inkscape:groupmode="layer"
     id="layer1"><rect
       style="fill:#1b0b00;fill-opacity:1"
       id="rect1"
       width="180"
       height="180"
       x="0"
       y="0" /><g
       style="fill:#000000;stroke:#ff8c7c;stroke-width:2.4;stroke-opacity:1"
       id="g2"
       transform="matrix(2.5656091,0,0,2.5656091,277.65793,240.48231)"><g
         id="SVGRepo_bgCarrier"
         stroke-width="0"
         style="stroke:#ff8c7c;stroke-opacity:1" /><g
         id="SVGRepo_tracerCarrier"
         stroke-linecap="round"
         stroke-linejoin="round"
         style="stroke:#ff8c7c;stroke-opacity:1" /><g
         id="SVGRepo_iconCarrier"
         style="stroke:#ff8c7c;stroke-width:2.39982;stroke-dasharray:none;stroke-opacity:1"
         transform="matrix(0.88190795,0,0,0.88190795,-8.263097,-6.9265282)"><defs
           id="defs1-9"><style
             id="style2">.c{fill:none;stroke:#000000;stroke-linecap:round;stroke-linejoin:round;}</style></defs><g
           id="g3"
           style="stroke:#ff8c7c;stroke-width:2.39982;stroke-dasharray:none;stroke-opacity:1"><path
             class="c"
             d="m -82.670001,-44.201337 c -1.263723,1.855685 -2.689884,3.713358 -4.131948,5.433583 -10.47896,-0.298182 -14.454721,-7.099567 -14.454721,-7.099567 0.14895,-9.63681 2.484284,-19.114021 6.829787,-27.716708 3.819851,-2.98835 8.474184,-4.715106 13.318787,-4.941298 l 1.419913,3.279999 c 2.028062,-0.281568 4.072453,-0.428529 6.119826,-0.440173 2.056603,0.0068 4.110365,0.149091 6.148225,0.425974 l 1.419913,-3.28 c 4.849288,0.238404 9.50419,1.980354 13.318787,4.983896 4.331588,8.596439 6.65698,18.063286 6.801385,27.68831 0,0 -3.975757,6.801385 -14.454717,7.099567 -1.443484,-1.73414 -2.798792,-3.539702 -4.060953,-5.40987 m 9.172641,-4.117749 c -5.452468,2.7623 -10.728156,5.523463 -18.345281,5.523463 -7.617125,0 -12.892813,-2.761163 -18.34528,-5.523463"
             id="path1"
             style="stroke:#ff8c7c;stroke-width:2.39982;stroke-dasharray:none;stroke-opacity:1" /><path
             class="c"
             d="m -87.061793,-56.275284 c 0,-2.627124 2.129586,-4.75671 4.75671,-4.75671 2.627123,0 4.756709,2.129586 4.756709,4.75671"
             id="path2"
             style="stroke:#ff8c7c;stroke-width:2.39982;stroke-dasharray:none;stroke-opacity:1" /><path
             class="c"
             d="m -69.58834,-56.275284 c 0,-2.627124 2.129586,-4.75671 4.75671,-4.75671 2.627124,0 4.75671,2.129586 4.75671,4.75671"
             id="path3"
             style="stroke:#ff8c7c;stroke-width:2.39982;stroke-dasharray:none;stroke-opacity:1" /></g></g></g></g></svg>
